# xmcd
#
# Track frame offsets:
#	150
#	13828
#	46549
#	62303
#	71515
#	88683
#	118056
#	134458
#	144540
#	157967
#	177748
#	195341
#	205176
#
# Disc length: 2968
#
# Revision: 2
# Processed by: cddbd v1.5.1PL0 Copyright (c) Steve Scherf et al.
# Submitted via: Grip 3.2.0
# Normalized: r1:DSETVAR1
#
DISCID=b00b960d
DTITLE=Various Artist - Brazil Guitar Masters [CD 2)
DYEAR=2002
DGENRE=Alternative
TTITLE0=Baden Powell - Berimbau
TTITLE1=Rosinha de Valenca - Tema do Baden
TTITLE2=Jose Barrense-Dias - Samba do cameraman
TTITLE3=Chiquinho timoteo - Expresso torino
TTITLE4=Rosinha de Valenca - Euridice
TTITLE5=Baden Powell - Variacoes brasileiras/Asa branca
TTITLE6=Jose Barrense-Dias - Vuco vuco
TTITLE7=Chiquinho timoteo - Bahia sarava
TTITLE8=Baden Powell - Gente humilde
TTITLE9=Rosinha de Valenca - Sabor marron
TTITLE10=Jose Barrense-Dias - Quero Samba
TTITLE11=Chiquinho Timoteo - Quebra cabeca
TTITLE12=Baden Powell - Samba do Aviao
EXTD=
EXTT0=
EXTT1=
EXTT2=
EXTT3=
EXTT4=
EXTT5=
EXTT6=
EXTT7=
EXTT8=
EXTT9=
EXTT10=
EXTT11=
EXTT12=
PLAYORDER=
